<svg width="60" height="60" viewBox="0 0 60 60" fill="none" xmlns="http://www.w3.org/2000/svg">
<path d="M0 30C0 13.4315 13.4315 0 30 0V0C46.5685 0 60 13.4315 60 30V30C60 46.5685 46.5685 60 30 60V60C13.4315 60 0 46.5685 0 30V30Z" fill="#D9D9D9"/>
<path d="M18 45.72C17.968 45.72 17.776 45.704 17.424 45.672C17.104 45.672 16.944 45.656 16.944 45.624C16.88 45.496 16.816 45.432 16.752 45.432C16.72 45.432 16.64 45.416 16.512 45.384C16.48 45.352 16.32 45.24 16.032 45.048C15.744 44.856 15.536 44.696 15.408 44.568C15.184 44.696 14.944 44.808 14.688 44.904C14.432 45.032 14.176 45.096 13.92 45.096C13.344 45.096 12.768 44.872 12.192 44.424C11.648 44.008 11.376 43.544 11.376 43.032C11.376 42.68 11.456 42.296 11.616 41.88C11.744 41.496 11.792 41.272 11.76 41.208C11.856 41.048 11.952 40.84 12.048 40.584C12.176 40.328 12.224 40.12 12.192 39.96C12.256 39.832 12.4 39.496 12.624 38.952C12.848 38.376 13.072 37.832 13.296 37.32C13.552 36.776 13.712 36.504 13.776 36.504L13.824 36.168C13.856 36.008 13.936 35.944 14.064 35.976C14.192 35.976 14.256 36.056 14.256 36.216C14.224 36.664 14.16 37.096 14.064 37.512C13.968 37.928 13.92 38.392 13.92 38.904V39.048C13.92 39.464 13.968 39.864 14.064 40.248C14.192 40.632 14.224 41.032 14.16 41.448C14.16 41.512 14.176 41.576 14.208 41.64C14.272 41.736 14.32 41.816 14.352 41.88H14.4C14.56 42.392 14.752 42.856 14.976 43.272C15.232 43.112 15.472 42.936 15.696 42.744C15.92 42.552 16.128 42.36 16.32 42.168C16.576 42.136 16.736 42.056 16.8 41.928C16.896 41.8 16.976 41.64 17.04 41.448C17.392 41.128 17.712 40.776 18 40.392C18.32 40.008 18.64 39.656 18.96 39.336L19.008 39.288C19.136 39.064 19.296 39 19.488 39.096C19.552 38.84 19.664 38.568 19.824 38.28C20.016 37.992 20.224 37.72 20.448 37.464C20.672 37.176 20.88 36.888 21.072 36.6L22.992 33.528C23.152 33.272 23.296 33.032 23.424 32.808C23.552 32.552 23.696 32.312 23.856 32.088C23.92 31.992 24 31.912 24.096 31.848C24.224 31.784 24.304 31.736 24.336 31.704V31.56C24.336 31.368 24.368 31.224 24.432 31.128H24.48C24.608 30.904 24.736 30.648 24.864 30.36C25.024 30.072 25.184 29.832 25.344 29.64C25.408 29.576 25.488 29.528 25.584 29.496C25.68 29.432 25.744 29.352 25.776 29.256C25.776 29.224 25.76 29.144 25.728 29.016C25.696 28.888 25.744 28.792 25.872 28.728L25.92 28.632V28.584C26.24 28.552 26.368 28.472 26.304 28.344C26.272 28.216 26.272 28.056 26.304 27.864L26.448 27.672V27.624C26.672 27.528 26.8 27.384 26.832 27.192C26.896 26.968 26.944 26.76 26.976 26.568C27.04 26.536 27.152 26.328 27.312 25.944C27.504 25.56 27.68 25.16 27.84 24.744C28.032 24.296 28.16 24.024 28.224 23.928C28.384 23.864 28.464 23.768 28.464 23.64C28.464 23.48 28.48 23.336 28.512 23.208C28.576 23.048 28.592 22.872 28.56 22.68C28.56 22.488 28.576 22.296 28.608 22.104C28.672 21.912 28.72 21.704 28.752 21.48C28.816 21.256 28.848 21.032 28.848 20.808V20.76C28.816 20.696 28.8 20.6 28.8 20.472C28.8 20.344 28.832 20.232 28.896 20.136C28.96 20.04 29.024 19.928 29.088 19.8V19.752C29.152 19.688 29.232 19.56 29.328 19.368C29.456 19.176 29.584 19.096 29.712 19.128C29.84 19.064 29.936 19.032 30 19.032C30.16 19.032 30.32 19.112 30.48 19.272H30.528L30.72 19.32C30.816 19.192 30.88 18.952 30.912 18.6C30.976 18.216 31.008 17.928 31.008 17.736V17.688C31.104 17.496 31.168 17.336 31.2 17.208C31.264 17.048 31.264 16.856 31.2 16.632C31.264 16.568 31.328 16.504 31.392 16.44C31.456 16.344 31.536 16.264 31.632 16.2C31.728 16.232 31.776 16.36 31.776 16.584C31.776 16.712 31.76 16.856 31.728 17.016C31.728 17.144 31.728 17.24 31.728 17.304C31.696 17.368 31.68 17.48 31.68 17.64C31.52 17.704 31.44 17.8 31.44 17.928C31.44 18.024 31.456 18.136 31.488 18.264C31.552 18.36 31.584 18.456 31.584 18.552C31.552 19 31.52 19.48 31.488 19.992C31.488 20.504 31.488 21.032 31.488 21.576C31.488 23.016 31.536 24.552 31.632 26.184C31.76 27.816 31.936 29.4 32.16 30.936C32.384 32.472 32.656 33.848 32.976 35.064H33.024V35.208C33.024 35.336 33.056 35.464 33.12 35.592C33.184 35.72 33.248 35.848 33.312 35.976V36.024L33.6 36.744C33.6 36.968 33.664 37.176 33.792 37.368C33.952 37.56 34.096 37.736 34.224 37.896C34.256 38.088 34.272 38.232 34.272 38.328C34.304 38.392 34.432 38.44 34.656 38.472L34.848 38.664H34.896C35.024 39.08 35.232 39.224 35.52 39.096L35.568 39.144C35.6 39.112 35.664 39.096 35.76 39.096C35.92 39.096 36.048 39.176 36.144 39.336C36.24 39.496 36.352 39.608 36.48 39.672L36.528 39.72C36.592 39.72 36.64 39.64 36.672 39.48C36.736 39.32 36.8 39.224 36.864 39.192C36.992 39.224 37.2 39.144 37.488 38.952C37.808 38.728 38.112 38.488 38.4 38.232C38.688 37.944 38.848 37.752 38.88 37.656L38.928 37.608C39.088 37.448 39.168 37.32 39.168 37.224C39.168 37.096 39.264 36.952 39.456 36.792L39.984 35.928V35.88C40.272 35.752 40.416 35.48 40.416 35.064C40.48 34.968 40.544 34.872 40.608 34.776C40.672 34.648 40.72 34.52 40.752 34.392V34.344C40.88 34.216 40.992 34.12 41.088 34.056C41.216 33.992 41.216 33.848 41.088 33.624L41.568 32.472V32.424L41.904 31.8C42.064 31.416 42.192 31.016 42.288 30.6C42.416 30.184 42.544 29.784 42.672 29.4C42.704 29.304 42.768 29.08 42.864 28.728C42.96 28.344 43.056 27.96 43.152 27.576C43.28 27.192 43.344 26.952 43.344 26.856C43.376 26.696 43.424 26.552 43.488 26.424C43.584 26.296 43.648 26.168 43.68 26.04C43.744 25.432 43.856 24.84 44.016 24.264C44.176 23.688 44.336 23.112 44.496 22.536C44.464 22.472 44.432 22.408 44.4 22.344C44.4 22.28 44.4 22.216 44.4 22.152L44.448 22.104L44.544 21.48C44.576 21.288 44.64 21.096 44.736 20.904C44.864 20.68 44.848 20.472 44.688 20.28C44.656 20.024 44.608 19.624 44.544 19.08C44.48 18.536 44.368 18.2 44.208 18.072C44.176 17.944 44.112 17.768 44.016 17.544C43.92 17.32 43.872 17.16 43.872 17.064C43.872 16.968 43.92 16.888 44.016 16.824C44.144 16.76 44.256 16.728 44.352 16.728C44.608 16.728 44.8 16.808 44.928 16.968C45.088 17.128 45.248 17.288 45.408 17.448L45.456 17.496C45.488 17.72 45.632 17.928 45.888 18.12V18.168C46.016 18.328 46.096 18.504 46.128 18.696H46.176C46.208 18.76 46.192 18.824 46.128 18.888C46.096 18.952 46.08 19.016 46.08 19.08C46.144 19.176 46.224 19.24 46.32 19.272C46.416 19.272 46.496 19.288 46.56 19.32C46.72 19.48 46.8 19.704 46.8 19.992C46.8 20.28 46.912 20.472 47.136 20.568C47.296 20.728 47.44 20.888 47.568 21.048C47.728 21.176 47.92 21.288 48.144 21.384C48.208 21.352 48.288 21.352 48.384 21.384C48.48 21.416 48.576 21.416 48.672 21.384V21.336H48.72C48.784 21.272 48.832 21.24 48.864 21.24C49.024 21.24 49.104 21.352 49.104 21.576C49.104 21.736 49.024 21.864 48.864 21.96L48.72 22.056C48.688 22.024 48.64 22.008 48.576 22.008C48.48 22.008 48.368 22.04 48.24 22.104C48.144 22.168 48.032 22.2 47.904 22.2C47.776 22.104 47.664 22.024 47.568 21.96C47.504 21.896 47.392 21.864 47.232 21.864L47.136 21.816L46.08 20.952C46.048 20.92 46.016 20.904 45.984 20.904C45.92 20.904 45.888 20.968 45.888 21.096C45.888 21.192 45.888 21.272 45.888 21.336C45.92 21.464 45.936 21.576 45.936 21.672C45.936 21.768 45.936 21.88 45.936 22.008C45.936 22.296 45.92 22.584 45.888 22.872C45.856 23.16 45.824 23.432 45.792 23.688C45.664 23.816 45.568 23.944 45.504 24.072C45.472 24.168 45.52 24.296 45.648 24.456C45.648 24.552 45.584 24.856 45.456 25.368C45.36 25.88 45.28 26.216 45.216 26.376C44.992 27.144 44.8 27.848 44.64 28.488C44.48 29.128 44.224 29.816 43.872 30.552C43.84 30.648 43.824 30.76 43.824 30.888C43.824 31.016 43.792 31.128 43.728 31.224V31.272C43.536 31.784 43.344 32.296 43.152 32.808C42.96 33.32 42.736 33.8 42.48 34.248L41.856 35.352C41.728 35.576 41.6 35.768 41.472 35.928C41.344 36.088 41.216 36.28 41.088 36.504C40.928 36.824 40.768 37.144 40.608 37.464C40.448 37.752 40.24 38.024 39.984 38.28V38.328C39.92 38.296 39.856 38.28 39.792 38.28C39.632 38.28 39.52 38.36 39.456 38.52C39.392 38.648 39.328 38.744 39.264 38.808C39.232 38.84 39.184 38.856 39.12 38.856C38.896 38.856 38.784 38.904 38.784 39C38.784 39.128 38.752 39.24 38.688 39.336H38.64C38.32 39.56 37.968 39.736 37.584 39.864C37.2 39.992 36.816 40.056 36.432 40.056C35.984 40.056 35.616 39.992 35.328 39.864H35.232C35.104 39.512 34.88 39.416 34.56 39.576L34.512 39.528C34.352 39.368 34.176 39.224 33.984 39.096C33.792 39 33.616 38.872 33.456 38.712C32.944 38.168 32.464 37.448 32.016 36.552C31.568 35.624 31.264 34.808 31.104 34.104V34.008C31.104 33.976 31.104 33.96 31.104 33.96C31.136 33.928 31.152 33.896 31.152 33.864C31.152 33.768 31.12 33.672 31.056 33.576C31.024 33.48 30.976 33.4 30.912 33.336C30.912 33.272 30.864 33.08 30.768 32.76C30.704 32.408 30.64 32.056 30.576 31.704C30.512 31.32 30.48 31.048 30.48 30.888C30.48 30.664 30.496 30.488 30.528 30.36C30.592 30.232 30.544 30.104 30.384 29.976V29.832C30.384 29.576 30.352 29.336 30.288 29.112C30.256 28.856 30.24 28.616 30.24 28.392V28.344C30.24 28.024 30.224 27.736 30.192 27.48C30.192 27.192 30.176 26.904 30.144 26.616C30.112 26.36 30.096 26.088 30.096 25.8C30.128 25.512 30.144 25.224 30.144 24.936V24.264C30.144 23.848 30.112 23.64 30.048 23.64C29.952 23.64 29.776 23.88 29.52 24.36C29.456 24.488 29.296 24.792 29.04 25.272C28.816 25.72 28.56 26.216 28.272 26.76C28.016 27.272 27.776 27.72 27.552 28.104C27.36 28.488 27.248 28.696 27.216 28.728C27.184 28.952 27.072 29.16 26.88 29.352V29.4L26.016 30.888V30.936C25.952 31 25.888 31.08 25.824 31.176C25.792 31.272 25.744 31.368 25.68 31.464V31.512L25.104 32.424V32.472C24.944 32.536 24.816 32.6 24.72 32.664C24.624 32.728 24.624 32.872 24.72 33.096V33.144L24.288 33.816V33.864C24.064 33.992 23.904 34.168 23.808 34.392C23.744 34.584 23.664 34.792 23.568 35.016H23.52C23.36 35.304 23.184 35.608 22.992 35.928C22.832 36.248 22.64 36.536 22.416 36.792C22.256 37.016 21.968 37.4 21.552 37.944C21.136 38.456 20.896 38.84 20.832 39.096H20.784C20.752 39.224 20.672 39.336 20.544 39.432C20.448 39.56 20.368 39.672 20.304 39.768C19.728 40.536 19.04 41.352 18.24 42.216C17.44 43.112 16.624 43.816 15.792 44.328C16.08 44.616 16.416 44.856 16.8 45.048C16.96 45.048 17.04 45.08 17.04 45.144C17.04 45.208 17.072 45.272 17.136 45.336H17.232C17.328 45.336 17.456 45.32 17.616 45.288C17.808 45.288 17.936 45.288 18 45.288C18.16 45.288 18.24 45.352 18.24 45.48C18.24 45.64 18.16 45.72 18 45.72ZM13.344 43.992C13.504 43.992 13.68 43.944 13.872 43.848C14.096 43.752 14.352 43.64 14.64 43.512C14.608 43.448 14.592 43.4 14.592 43.368C14.592 43.336 14.56 43.304 14.496 43.272C14.464 43.176 14.416 43.08 14.352 42.984C14.32 42.888 14.272 42.792 14.208 42.696V42.648C14.144 42.488 14.08 42.312 14.016 42.12C13.984 41.928 13.936 41.752 13.872 41.592H13.824C13.696 41.336 13.6 40.856 13.536 40.152C13.504 39.48 13.488 38.984 13.488 38.664C13.456 38.824 13.376 39.128 13.248 39.576C13.152 40.024 13.056 40.456 12.96 40.872C12.896 41.32 12.864 41.608 12.864 41.736C12.672 41.864 12.576 41.976 12.576 42.072C12.576 42.136 12.592 42.2 12.624 42.264C12.688 42.328 12.736 42.408 12.768 42.504C12.768 43.496 12.96 43.992 13.344 43.992Z" fill="#FF4500"/>
</svg>
